<svg xmlns="http://www.w3.org/2000/svg" width="30.768" height="30.257" viewBox="0 0 30.768 30.257"><defs><style>.a{fill:#5d656e;}.b{fill:#474d54;}.c{fill:#7f8a96;}.d{fill:#f2f5fb;}.e{fill:#e6e8f0;}.f{fill:#747e8a;}.g{fill:#e7e7e7;}.h{fill:#ffa05b;}.i{fill:#90d7a7;}.j{fill:#c9c9c9;}.k{fill:#72c888;}</style></defs><g transform="translate(0 0)"><path class="a" d="M174.7,286.27h9.067v4.436H174.7Z" transform="translate(-163.889 -268.803)"/><path class="b" d="M291.171,286.27h1.857v4.436h-1.857Z" transform="translate(-273.145 -268.803)"/><path class="c" d="M30.061,357.167H.706A.706.706,0,0,1,0,356.46v-7.543a.706.706,0,0,1,.706-.706H30.061a.706.706,0,0,1,.706.706v7.543A.706.706,0,0,1,30.061,357.167Z" transform="translate(0 -326.91)"/><path class="c" d="M74.028,22.194H50.66a.564.564,0,0,1-.564-.564V4.689a.564.564,0,0,1,.564-.564H74.028a.564.564,0,0,1,.564.564V21.63A.564.564,0,0,1,74.028,22.194Z" transform="translate(-46.995 -4.125)"/><path class="d" d="M84.486,51.667V39.174a.659.659,0,0,1,.659-.659h18.92a.659.659,0,0,1,.659.659V51.667a.659.659,0,0,1-.659.659H85.145A.659.659,0,0,1,84.486,51.667Z" transform="translate(-79.256 -36.386)"/><path class="e" d="M372.6,38.515h-1.857a.659.659,0,0,1,.659.659V51.667a.659.659,0,0,1-.659.659H372.6a.659.659,0,0,0,.659-.659V39.174A.659.659,0,0,0,372.6,38.515Z" transform="translate(-347.794 -36.386)"/><path class="f" d="M457.413,348.211h-1.822a.706.706,0,0,1,.706.706v7.543a.706.706,0,0,1-.706.706h1.822a.706.706,0,0,0,.706-.706v-7.543A.706.706,0,0,0,457.413,348.211Z" transform="translate(-427.387 -326.91)"/><path class="f" d="M408.526,4.125h-1.857a.564.564,0,0,1,.564.564V21.63a.564.564,0,0,1-.564.564h1.857a.564.564,0,0,0,.564-.564V4.689a.564.564,0,0,0-.564-.564Z" transform="translate(-381.493 -4.125)"/><ellipse class="g" cx="1.356" cy="1.356" rx="1.356" ry="1.356" transform="translate(25.045 24.423)"/><path class="h" d="M306.222,180.793h-3.45a.494.494,0,0,1-.494-.494V178.32a.494.494,0,0,1,.494-.494h3.45a.494.494,0,0,1,.494.494V180.3A.494.494,0,0,1,306.222,180.793Z" transform="translate(-283.565 -167.073)"/><path class="i" d="M126.892,82.357h-8.313a.608.608,0,0,1-.608-.608V73.436a.608.608,0,0,1,.608-.608h8.313a.608.608,0,0,1,.608.608v8.313A.608.608,0,0,1,126.892,82.357Z" transform="translate(-110.668 -68.575)"/><path class="a" d="M90.288,413.972h-16.7a.464.464,0,0,1,0-.929h16.7a.464.464,0,0,1,0,.929Z" transform="translate(-68.597 -387.728)"/><path class="j" d="M310.62,133h-2.838a.464.464,0,0,1,0-.929h2.838a.464.464,0,0,1,0,.929Z" transform="translate(-288.293 -124.155)"/><path class="j" d="M310.62,101.017h-2.838a.464.464,0,0,1,0-.929h2.838a.464.464,0,0,1,0,.929Z" transform="translate(-288.293 -94.147)"/><path class="k" d="M127.5,79.524h-2.674V78.057H127.5v-.929h-2.674V75.661H127.5v-.929h-2.674v-1.9H123.9v1.9h-2.323v-1.9h-.929v1.9h-2.674v.929h2.674v1.467h-2.674v.929h2.674v1.467h-2.674v.929h2.674v1.9h.929v-1.9H123.9v1.9h.929v-1.9H127.5Zm-3.6,0h-2.323V78.057H123.9Zm0-2.4h-2.323V75.661H123.9Z" transform="translate(-110.669 -68.575)"/></g></svg>