<svg xmlns="http://www.w3.org/2000/svg" width="28.887" height="30.708" viewBox="0 0 28.887 30.708"><defs><style>.a{fill:#fed2a4;}.b{fill:#ffbd86;}.c{fill:#97da7b;}.d{fill:#80d261;}.e{fill:#dbf1d0;}.f{fill:#d5efc8;}</style></defs><g transform="translate(0 0)"><g transform="translate(8.234 8.107)"><path class="a" d="M161.228,137.75v.64a4.383,4.383,0,0,1-.822,2.555l-1.336,1.865v9.831a.916.916,0,0,1-.916.916h-9.526a.916.916,0,0,1-.916-.916V130.955h13.516Z" transform="translate(-147.712 -130.955)"/></g><g transform="translate(0 0)"><path class="b" d="M161.228,131.6v-.646H147.712v21.685a.916.916,0,0,0,.916.916h3.58a.916.916,0,0,1-.041-.27v-6.224a3.836,3.836,0,0,0,1.854-3.282v-1.845a5.759,5.759,0,0,0-1.7-4.1c-.051-.051-.1-.1-.156-.15V131.6Z" transform="translate(-139.478 -122.849)"/><path class="c" d="M42.916,16.387a.679.679,0,0,1,.679.679V29.531a.679.679,0,0,1-.679.679H15.386a.679.679,0,0,1-.679-.679V17.066a.679.679,0,0,1,.679-.679h27.53Z" transform="translate(-14.707 -15.373)"/><path class="d" d="M21.014,29.531V17.066a.679.679,0,0,1,.679-.679H15.386a.679.679,0,0,0-.679.679V29.531a.679.679,0,0,0,.679.679h6.307A.679.679,0,0,1,21.014,29.531Z" transform="translate(-14.707 -15.373)"/><path class="d" d="M78.756,117.37a3.317,3.317,0,0,0-2.363-.98h-.069a3.377,3.377,0,0,0-3.272,3.376v4.255h9.077a5.822,5.822,0,0,0-2.256-1.3.194.194,0,0,1-.139-.185v-2.809A3.315,3.315,0,0,0,78.756,117.37Z" transform="translate(-69.44 -109.185)"/><path class="e" d="M68.52,46.388a1.36,1.36,0,0,0,1.36,1.36v7.389a1.36,1.36,0,0,0-1.36,1.36H46.067a1.36,1.36,0,0,0-1.36-1.36V47.748a1.36,1.36,0,0,0,1.36-1.36Z" transform="translate(-42.85 -43.516)"/><path class="f" d="M52.166,51.7a3.317,3.317,0,0,0-2.363-.98h-.075a.553.553,0,0,1-.572-.55V46.388h-3.09a1.36,1.36,0,0,1-1.36,1.36v7.389a1.36,1.36,0,0,1,1.36,1.36h7.077V54.063A3.315,3.315,0,0,0,52.166,51.7Z" transform="translate(-42.85 -43.516)"/><g transform="translate(7.558 0)"><ellipse class="c" cx="3.619" cy="3.619" rx="3.619" ry="3.619" transform="translate(3.27 4.014)"/><path class="a" d="M290.694,1.054V2.871a1.556,1.556,0,0,1-3.112,0V1.054A1.054,1.054,0,0,1,288.637,0h1a1.054,1.054,0,0,1,1.055,1.054Z" transform="translate(-278.247 0)"/><path class="a" d="M240.433,2.871v.644a1.556,1.556,0,0,1-3.111,0V1.054A1.054,1.054,0,0,1,238.376,0h1a1.054,1.054,0,0,1,1.054,1.054Z" transform="translate(-231.098 0)"/><path class="a" d="M190.164,3.515v.524a1.556,1.556,0,0,1-3.112,0V1.054A1.054,1.054,0,0,1,188.107,0h1a1.054,1.054,0,0,1,1.055,1.054Z" transform="translate(-183.941 0)"/><path class="a" d="M139.9,1.054V3.515a1.556,1.556,0,0,1-3.111,0V1.054A1.054,1.054,0,0,1,137.846,0h1A1.054,1.054,0,0,1,139.9,1.054Z" transform="translate(-136.792 0)"/><g transform="translate(0 0)"><path class="b" d="M289.08,2.871V1.054a1.057,1.057,0,0,1,.81-1.024,1.078,1.078,0,0,0-.25-.03h-1a1.054,1.054,0,0,0-1.055,1.054V2.871a1.556,1.556,0,0,0,2.3,1.364,1.555,1.555,0,0,1-.807-1.364Z" transform="translate(-278.247 0)"/><path class="b" d="M238.82,3.515V1.054A1.056,1.056,0,0,1,239.629.03a1.078,1.078,0,0,0-.25-.03h-1a1.054,1.054,0,0,0-1.054,1.054V3.515a1.556,1.556,0,0,0,2.3,1.364A1.555,1.555,0,0,1,238.82,3.515Z" transform="translate(-231.098 0)"/><path class="b" d="M188.55,4.039V1.054A1.057,1.057,0,0,1,189.36.03a1.082,1.082,0,0,0-.251-.03h-1a1.054,1.054,0,0,0-1.055,1.054V4.039a1.556,1.556,0,0,0,2.3,1.364A1.555,1.555,0,0,1,188.55,4.039Z" transform="translate(-183.941 0)"/><path class="b" d="M138.29,3.515V1.054A1.056,1.056,0,0,1,139.1.03a1.076,1.076,0,0,0-.25-.03h-1a1.054,1.054,0,0,0-1.054,1.054V3.515a1.556,1.556,0,0,0,2.3,1.364A1.555,1.555,0,0,1,138.29,3.515Z" transform="translate(-136.792 0)"/></g></g></g><g transform="translate(5.16 8.753)"><path class="a" d="M105.888,153.569a2.286,2.286,0,0,1-2.337,2.286l-2.425-.054L99,153.677a3.244,3.244,0,0,1-.95-2.294v-8.164a1.817,1.817,0,0,1,1.756-1.829,1.794,1.794,0,0,1,1.831,1.793v3.824a.494.494,0,0,0,.444.491,4.249,4.249,0,0,1,3.805,4.226Z" transform="translate(-98.052 -141.39)"/></g><g transform="translate(5.16 8.753)"><path class="b" d="M103.262,155.539h0l-1.862-1.862a3.244,3.244,0,0,1-.95-2.294v-8.164a1.847,1.847,0,0,1,.6-1.363,1.785,1.785,0,0,0-1.243-.466,1.817,1.817,0,0,0-1.756,1.829v8.164a3.244,3.244,0,0,0,.95,2.294l2.124,2.124,2.425.054h.026Z" transform="translate(-98.052 -141.39)"/></g></g></svg>