<svg xmlns="http://www.w3.org/2000/svg" width="31.698" height="31.698" viewBox="0 0 31.698 31.698"><defs><style>.a{fill:#d3e0e4;}.b{fill:#002c3b;}.c{fill:#ffe477;}.d{fill:#ffcd00;}.e{fill:#fdfae5;}.f{fill:#faf1b4;}</style></defs><g transform="translate(0 0)"><g transform="translate(1.605 0)"><path class="a" d="M55.467,13.388,39.306,29.549a1.857,1.857,0,0,1-2.626,0L26.462,19.332a1.857,1.857,0,0,1,0-2.626L42.623.544a1.857,1.857,0,0,1,2.626,0L51.208,6.5l.93,2.168,1.856.618,1.473,1.473A1.857,1.857,0,0,1,55.467,13.388Z" transform="translate(-25.918 0)"/><path class="b" d="M0,0H26.57V3.94H0Z" transform="translate(6.501 25.289) rotate(-45)"/></g><g transform="translate(0 13.533)"><path class="c" d="M1.857,218.609A1.857,1.857,0,0,0,0,220.466v14.45a1.857,1.857,0,0,0,1.857,1.857H13.285l1.857-9.082-1.857-9.082H1.857Z" transform="translate(0 -218.609)"/><path class="d" d="M226.022,218.609H214.594v18.164h11.428a1.857,1.857,0,0,0,1.857-1.857v-14.45A1.857,1.857,0,0,0,226.022,218.609Z" transform="translate(-201.309 -218.609)"/></g><g transform="translate(2.955 18.485)"><g transform="translate(0 7.333)"><path class="e" d="M47.732,417.039H51.4V418.9H47.732Z" transform="translate(-47.732 -417.039)"/></g><g transform="translate(5.665 7.333)"><path class="e" d="M139.237,417.039H142.9V418.9h-3.665Z" transform="translate(-139.237 -417.039)"/></g><g transform="translate(11.33 7.333)"><path class="f" d="M230.743,417.039h3.665V418.9h-3.665Z" transform="translate(-230.743 -417.039)"/></g><g transform="translate(16.994 7.333)"><path class="f" d="M322.247,417.039h3.665V418.9h-3.665Z" transform="translate(-322.247 -417.039)"/></g><path class="e" d="M48.643,298.591h5.608v3.94H48.643Z" transform="translate(-48.587 -298.591)"/></g></g></svg>