<svg xmlns="http://www.w3.org/2000/svg" width="34.027" height="24.791" viewBox="0 0 34.027 24.791"><defs><style>.a{fill:#56a937;stroke:rgba(0,0,0,0);stroke-miterlimit:10;}</style></defs><path class="a" d="M1546.978,4617.873v-4.612c4.84,1.872,4.84,4.947,4.84,4.947v2.374h1.7c.5-1.488,1.767-3.166,4.864-3.844a6.664,6.664,0,0,1-.633,3.844h11.615l-5.185-23.791h-4.046l-3.875,3.435-.228,1.334a14.4,14.4,0,0,0-3.058-3.854v0a14.4,14.4,0,0,0-3.058,3.854l-.228-1.334-3.875-3.435h-4.046l-5.185,23.791h11.155A5.634,5.634,0,0,1,1546.978,4617.873Zm11.4-10.877v5.816s-.133,3.744-5.105,4.412v-5.081S1552.945,4608.266,1558.382,4607Zm-5.41-7.606c5.641,6.992.347,9.021,0,9.145C1552.625,4608.411,1547.331,4606.382,1552.972,4599.39Zm-5.995,7.119c5.967,1.805,4.841,7.019,4.841,7.019C1545.585,4611.589,1546.977,4606.509,1546.977,4606.509Z" transform="translate(-1535.958 -4596.291)"/></svg>