<svg xmlns="http://www.w3.org/2000/svg" width="31.696" height="27.222" viewBox="0 0 31.696 27.222"><defs><style>.a{fill:#e7a561;}.b{fill:#e28424;}.c{fill:#df751c;}.d{fill:#ffd064;}</style></defs><g transform="translate(0 0)"><path class="a" d="M24.009,36.137H2.064A2.064,2.064,0,0,0,0,38.2v1.461l.319.148V40.5L0,40.619V58.878l.319.139v.675L0,59.834V61.3a2.064,2.064,0,0,0,2.064,2.064H24.009a3.332,3.332,0,0,0,3.332-3.332V39.469a3.332,3.332,0,0,0-3.332-3.332Z" transform="translate(0 -36.137)"/><g transform="translate(0 0)"><g transform="translate(19.709)"><path class="b" d="M387.152,59.67v-.638l.444-.155V40.619l-.444-.2v-.531l.444-.222v-.193a3.332,3.332,0,0,0-3.332-3.332H380.78a3.332,3.332,0,0,1,3.332,3.332V60.027a3.332,3.332,0,0,1-3.332,3.332h3.483a3.332,3.332,0,0,0,3.332-3.332v-.193Z" transform="translate(-376.916 -36.137)"/><path class="b" d="M325.989,202.983a1.309,1.309,0,0,0,1.309-1.309V196.8a1.309,1.309,0,0,0-1.309-1.309H322.1a3.746,3.746,0,0,0,0,7.492h3.886Z" transform="translate(-318.357 -185.626)"/><path class="c" d="M438.07,195.49h-3.483A1.309,1.309,0,0,1,435.9,196.8v4.874a1.309,1.309,0,0,1-1.309,1.309h3.483a1.309,1.309,0,0,0,1.309-1.309V196.8A1.309,1.309,0,0,0,438.07,195.49Z" transform="translate(-427.392 -185.625)"/><ellipse class="d" cx="1.506" cy="1.506" rx="1.506" ry="1.506" transform="translate(2.253 12.105)"/></g><g transform="translate(0 22.741)"><path class="b" d="M1.307,404.429a.478.478,0,0,0,0-.957H0v.957H1.307Z" transform="translate(0 -403.472)"/><g transform="translate(3.354 0)"><path class="b" d="M77.379,404.429H74.854a.478.478,0,0,1,0-.957h2.525a.478.478,0,0,1,0,.957Zm-5.05,0H69.8a.478.478,0,0,1,0-.957h2.525a.478.478,0,0,1,0,.957Zm-5.05,0H64.755a.478.478,0,0,1,0-.957H67.28a.478.478,0,0,1,0,.957Zm-5.05,0H59.705a.478.478,0,0,1,0-.957H62.23a.478.478,0,0,1,0,.957Zm-5.05,0H54.655a.478.478,0,0,1,0-.957H57.18a.478.478,0,0,1,0,.957Z" transform="translate(-54.177 -403.472)"/></g><path class="c" d="M463.812,404.428v-.957H462.5a.478.478,0,0,0,0,.957h1.307Z" transform="translate(-433.423 -403.471)"/></g><g transform="translate(0 3.525)"><path class="c" d="M463.812,94.034v-.957H462.5a.478.478,0,0,0,0,.957h1.307Z" transform="translate(-433.423 -93.077)"/><g transform="translate(3.354 0)"><path class="b" d="M77.379,94.035H74.854a.478.478,0,1,1,0-.957h2.525a.478.478,0,0,1,0,.957Zm-5.05,0H69.8a.478.478,0,1,1,0-.957h2.525a.478.478,0,1,1,0,.957Zm-5.05,0H64.755a.478.478,0,1,1,0-.957H67.28a.478.478,0,0,1,0,.957Zm-5.05,0H59.705a.478.478,0,0,1,0-.957H62.23a.478.478,0,1,1,0,.957Zm-5.05,0H54.655a.478.478,0,1,1,0-.957H57.18a.478.478,0,0,1,0,.957Z" transform="translate(-54.177 -93.078)"/></g><path class="b" d="M1.307,94.035a.478.478,0,0,0,0-.957H0v.957H1.307Z" transform="translate(0 -93.078)"/></g></g></g></svg>