<svg xmlns="http://www.w3.org/2000/svg" width="86.301" height="24.791" viewBox="0 0 86.301 24.791"><defs><style>.a{fill:#56a937;stroke:rgba(0,0,0,0);stroke-miterlimit:10;}</style></defs><path class="a" d="M1557.75,4620.581a6.665,6.665,0,0,0,.633-3.844c-3.1.678-4.365,2.356-4.864,3.844h-1.7v-2.374s0-3.075-4.84-4.946v4.613a5.63,5.63,0,0,0,.756,2.708h-11.155l5.185-23.791h4.045l3.874,3.435.228,1.335a14.4,14.4,0,0,1,3.058-3.855v0a14.4,14.4,0,0,1,3.058,3.855l.228-1.335,3.875-3.435h4.046l5.185,23.791Zm-4.473-8.438v5.081c4.973-.669,5.105-4.412,5.105-4.412V4607C1552.945,4608.267,1553.277,4612.143,1553.277,4612.143Zm-1.459,1.385s1.126-5.214-4.841-7.02C1546.977,4606.508,1545.585,4611.589,1551.818,4613.528Zm1.154-4.994c.347-.124,5.641-2.153,0-9.145C1547.331,4606.381,1552.625,4608.411,1552.972,4608.534Zm48.027,5.379a4.537,4.537,0,0,1-1.665-1.075,4.777,4.777,0,0,1-1.067-1.734,6.814,6.814,0,0,1-.376-2.348,6.286,6.286,0,0,1,.415-2.364,5.091,5.091,0,0,1,1.135-1.742,4.788,4.788,0,0,1,1.7-1.083,5.83,5.83,0,0,1,2.08-.368,8.462,8.462,0,0,1,2.4.33,4.861,4.861,0,0,1,.722.269q.284.139.407.215l-.691,1.919a6.3,6.3,0,0,0-1.127-.453,4.806,4.806,0,0,0-1.39-.191,2.918,2.918,0,0,0-2.418.928,3.953,3.953,0,0,0-.744,2.541,5.088,5.088,0,0,0,.185,1.419,3.118,3.118,0,0,0,.552,1.1,2.483,2.483,0,0,0,.921.714,3.061,3.061,0,0,0,1.29.254c.266,0,.494,0,.682-.016a3.3,3.3,0,0,0,.5-.061v-3.7h2.395v5.265a8.926,8.926,0,0,1-1.382.36,12.087,12.087,0,0,1-2.348.193A6.1,6.1,0,0,1,1601,4613.913Zm18.366.169v-10.638h2.395v10.638Zm-4.212,0-.593-1.06q-.3-.538-.616-1.043c-.21-.338-.419-.657-.624-.959s-.412-.575-.617-.821h-1.182v3.884h-2.395V4603.6a13.671,13.671,0,0,1,1.62-.214c.558-.042,1.056-.061,1.5-.061a6.6,6.6,0,0,1,3.668.851,3.42,3.42,0,0,1,.76,4.467,3.376,3.376,0,0,1-1.481,1.1q.321.4.675.913t.7,1.075q.345.561.668,1.167t.6,1.19Zm-3.24-8.7-.392.031v2.886h.675a4.072,4.072,0,0,0,1.935-.338,1.221,1.221,0,0,0,.582-1.151,1.17,1.17,0,0,0-.59-1.112,3.654,3.654,0,0,0-1.742-.329C1612.206,4605.364,1612.051,4605.368,1611.913,4605.378Zm-17.109,8.7c-.118-.371-.246-.75-.382-1.14s-.271-.776-.407-1.164h-4.155q-.2.582-.4,1.168t-.377,1.135h-2.487q.6-1.72,1.139-3.178t1.055-2.747q.515-1.291,1.016-2.449t1.039-2.264h2.269q.526,1.1,1.034,2.264t1.026,2.449q.517,1.289,1.056,2.747t1.141,3.178Zm-3.111-7.6c-.1.265-.22.573-.351.922s-.278.731-.441,1.151-.327.857-.495,1.317h3.042q-.244-.691-.473-1.322t-.435-1.154q-.206-.523-.361-.921t-.251-.625Q1591.846,4606.086,1591.692,4606.485Zm-8.491,7.6q-.046-1.551-.122-3.377t-.231-3.684q-.277.644-.616,1.427t-.669,1.565q-.332.783-.64,1.5t-.523,1.221h-1.673q-.215-.508-.523-1.221t-.64-1.5q-.33-.784-.669-1.565t-.616-1.427q-.154,1.856-.23,3.684t-.123,3.377h-2.333q.061-1.259.146-2.686t.184-2.848q.1-1.42.23-2.732t.284-2.371h2.287q.277.507.639,1.25t.754,1.612q.392.868.777,1.773l.724,1.7.724-1.7q.385-.907.777-1.773t.754-1.612q.361-.743.639-1.25h2.18q.154,1.058.284,2.371t.23,2.732q.1,1.419.185,2.848t.146,2.686Z" transform="translate(-1535.959 -4596.29)"/></svg>