<svg xmlns="http://www.w3.org/2000/svg" width="48" height="48" viewBox="0 0 48 48"><defs><style>.a{fill:#00a652;}.b{fill:#fff;}</style></defs><g transform="translate(-27 -347)"><rect class="a" width="48" height="48" rx="10" transform="translate(27 347)"/><path class="b" d="M28.582,51.67V40.045a2.759,2.759,0,0,1-1.8-2.811V35.5a2.771,2.771,0,0,1,2.909-2.983H49.118a2.737,2.737,0,0,1,2.9,2.983v1.731a2.75,2.75,0,0,1-1.792,2.811V51.67c0,2.627-1.473,4.063-4.088,4.063H32.669C30.042,55.733,28.582,54.3,28.582,51.67ZM48.676,37.663a.675.675,0,0,0,.761-.773V35.847a.675.675,0,0,0-.761-.773H30.128a.675.675,0,0,0-.761.773V36.89a.675.675,0,0,0,.761.773ZM45.9,53a1.341,1.341,0,0,0,1.51-1.5V40.217H31.38V51.5A1.336,1.336,0,0,0,32.89,53ZM34.425,44.157v-.393a1.06,1.06,0,0,1,1.1-1.117h7.758a1.067,1.067,0,0,1,1.1,1.117v.393a1.074,1.074,0,0,1-1.1,1.117H35.529A1.074,1.074,0,0,1,34.425,44.157Z" transform="translate(11.223 326.48)"/></g></svg>