<svg xmlns="http://www.w3.org/2000/svg" width="48" height="48" viewBox="0 0 48 48"><defs><style>.a{fill:#00a652;}.b{fill:#fff;}</style></defs><g transform="translate(-27 -347)"><rect class="a" width="48" height="48" rx="10" transform="translate(27 347)"/><path class="b" d="M296.926,326.773v-14.9c0-2.7,1.461-4.149,4.186-4.149h17.014c2.737,0,4.186,1.449,4.186,4.149v14.9c0,2.7-1.449,4.162-4.186,4.162H301.112C298.387,330.934,296.926,329.486,296.926,326.773ZM318,328.123a1.336,1.336,0,0,0,1.5-1.51v-11.1a1.331,1.331,0,0,0-1.5-1.51H301.235a1.326,1.326,0,0,0-1.5,1.51v11.1a1.331,1.331,0,0,0,1.5,1.51Zm-15.271-6.7V320.7c0-.442.147-.577.589-.577h.724c.442,0,.6.135.6.577v.724c0,.442-.16.577-.6.577h-.724C302.88,322,302.732,321.862,302.732,321.421Zm0,3.891V324.6c0-.442.147-.589.589-.589h.724c.442,0,.6.147.6.589v.712c0,.442-.16.589-.6.589h-.724C302.88,325.9,302.732,325.754,302.732,325.312Zm3.953-7.783V316.8c0-.442.147-.577.6-.577H308c.454,0,.6.135.6.577v.724c0,.442-.147.577-.6.577h-.712C306.832,318.106,306.685,317.971,306.685,317.529Zm0,3.891V320.7c0-.442.147-.577.6-.577H308c.454,0,.6.135.6.577v.724c0,.442-.147.577-.6.577h-.712C306.832,322,306.685,321.862,306.685,321.421Zm0,3.891V324.6c0-.442.147-.589.6-.589H308c.454,0,.6.147.6.589v.712c0,.442-.147.589-.6.589h-.712C306.832,325.9,306.685,325.754,306.685,325.312Zm3.953-7.783V316.8c0-.442.159-.577.6-.577h.724c.442,0,.589.135.589.577v.724c0,.442-.147.577-.589.577h-.724C310.8,318.106,310.638,317.971,310.638,317.529Zm0,3.891V320.7c0-.442.159-.577.6-.577h.724c.442,0,.589.135.589.577v.724c0,.442-.147.577-.589.577h-.724C310.8,322,310.638,321.862,310.638,321.421Zm0,3.891V324.6c0-.442.159-.589.6-.589h.724c.442,0,.589.147.589.589v.712c0,.442-.147.589-.589.589h-.724C310.8,325.9,310.638,325.754,310.638,325.312Zm3.965-7.783V316.8c0-.442.147-.577.589-.577h.724c.442,0,.589.135.589.577v.724c0,.442-.147.577-.589.577h-.724C314.75,318.106,314.6,317.971,314.6,317.529Zm0,3.891V320.7c0-.442.147-.577.589-.577h.724c.442,0,.589.135.589.577v.724c0,.442-.147.577-.589.577h-.724C314.75,322,314.6,321.862,314.6,321.421Z" transform="translate(-258.926 51.279)"/></g></svg>