<svg xmlns="http://www.w3.org/2000/svg" width="12.98" height="12.418" viewBox="0 0 12.98 12.418"><defs><style>.a{fill:#fff;}</style></defs><path class="a" d="M198.024,134.849l1.157-3.425-2.947-2.115c-.41-.291-.593-.627-.467-.986s.45-.519.958-.513l3.608.028,1.1-3.448c.16-.49.416-.752.787-.752s.633.262.787.752l1.1,3.448,3.608-.028c.507-.006.838.165.958.519s-.057.69-.467.98l-2.947,2.115,1.157,3.425a.883.883,0,0,1-.194,1.072c-.3.228-.667.16-1.083-.148l-2.918-2.143-2.918,2.143c-.416.308-.781.376-1.083.148A.883.883,0,0,1,198.024,134.849Z" transform="translate(-195.728 -123.638)"/></svg>