<svg xmlns="http://www.w3.org/2000/svg" width="26.658" height="28.581" viewBox="0 0 26.658 28.581"><defs></defs><g transform="translate(-202.522 -356.354)"><path class="a" d="M202.522,382.062c0-4.42,5.427-9.687,13.329-9.687s13.329,5.266,13.329,9.687c0,1.947-1.349,2.872-4.078,2.872H206.6C203.871,384.935,202.522,384.009,202.522,382.062Zm22.707-.271c.3,0,.413-.112.413-.335,0-2.075-3.57-5.936-9.791-5.936s-9.79,3.862-9.79,5.936c0,.224.111.335.413.335Zm-16.073-18.272a6.711,6.711,0,1,1,13.392-.016c0,4.037-2.983,7.293-6.7,7.293S209.171,367.541,209.155,363.519Zm10.2-.016a3.531,3.531,0,1,0-7,0c0,2.362,1.6,4.149,3.491,4.149C217.771,367.653,219.358,365.833,219.358,363.5Z"/></g></svg>