<svg xmlns="http://www.w3.org/2000/svg" width="21.604" height="21.604" viewBox="0 0 21.604 21.604"><defs><style>.a{fill:#00a652;}</style></defs><path class="a" d="M167.788,148.652v-13.87c0-2.513,1.36-3.862,3.9-3.862h13.8c2.548,0,3.907,1.348,3.907,3.862v13.87c0,2.514-1.36,3.873-3.907,3.873h-13.8C169.148,152.525,167.788,151.177,167.788,148.652Zm17.469,1.257a1.365,1.365,0,0,0,1.519-1.542v-13.3a1.357,1.357,0,0,0-1.519-1.531H171.924a1.348,1.348,0,0,0-1.519,1.531v13.3a1.356,1.356,0,0,0,1.519,1.542Zm-5.5-2.8-4.433-4.17a1.7,1.7,0,0,1,0-2.445l4.433-4.159a1.027,1.027,0,0,1,1.405-.034.981.981,0,0,1,.012,1.428l-4.239,3.987,4.239,3.976a.994.994,0,0,1,0,1.44A1.106,1.106,0,0,1,179.761,147.11Z" transform="translate(189.392 152.525) rotate(180)"/></svg>