<svg xmlns="http://www.w3.org/2000/svg" xmlns:xlink="http://www.w3.org/1999/xlink" width="44" height="44" viewBox="0 0 44 44"><defs><style>.a{fill:#fff;}.b{fill:#37474f;}.c{clip-path:url(#a);}</style><clipPath id="a"><rect class="a" width="24" height="24" transform="translate(51 433)"/></clipPath></defs><g transform="translate(-41 -423)"><rect class="b" width="44" height="44" rx="10" transform="translate(41 423)"/><g class="c"><g transform="translate(51 433)"><path class="a" d="M21.649,16.674a.5.5,0,0,0-.353-.224,3.477,3.477,0,0,1-.585-6.767.5.5,0,0,0,.269-.745A5.835,5.835,0,0,0,16.771,6a8.236,8.236,0,0,0-2.619.561A6.323,6.323,0,0,1,12.271,7a6.323,6.323,0,0,1-1.881-.439A8.236,8.236,0,0,0,7.771,6c-1.867,0-5.5,2.647-5.5,7.5,0,4.612,3.364,10.5,6,10.5a6.381,6.381,0,0,0,2.9-.668,2.745,2.745,0,0,1,1.1-.332,2.745,2.745,0,0,1,1.1.332,6.381,6.381,0,0,0,2.9.668c2.09,0,4.449-3.588,5.437-6.913A.5.5,0,0,0,21.649,16.674Z"/><path class="a" d="M11.771,6a5.506,5.506,0,0,0,5.5-5.5.5.5,0,0,0-.5-.5,5.506,5.506,0,0,0-5.5,5.5A.5.5,0,0,0,11.771,6Z"/></g></g></g></svg>