<svg xmlns="http://www.w3.org/2000/svg" width="35.535" height="34.781" viewBox="0 0 35.535 34.781"><g transform="translate(0 0)"><path class="a" d="M285.03,13.6a.736.736,0,0,1-.444-.614A4.538,4.538,0,0,0,280.3,8.846a.9.9,0,0,1-.8-.622,4.173,4.173,0,0,0-7.588-.636l-.041.075.081.027a4.57,4.57,0,0,1,3.085,4,14.147,14.147,0,0,1,7.219,4.974l.088.115.037-.14a3.41,3.41,0,0,1,2.877-2.777l.243-.027C285.214,13.689,285.132,13.648,285.03,13.6Z" transform="translate(-253.005 -5.437)"/><g transform="translate(0 0)"><path class="b" d="M278.442,6.564a4.2,4.2,0,0,0-6.527,1.029l-.041.075.081.027a4.5,4.5,0,0,1,1.389.763A4.178,4.178,0,0,1,278.442,6.564Z" transform="translate(-253.005 -5.442)"/><path class="b" d="M64.042,308.545h0l.02-.141Z" transform="translate(-59.597 -287.378)"/><path class="b" d="M59.1,307.957h0c0-.085,0-.055,0-.142Z" transform="translate(-55.002 -286.829)"/><path class="b" d="M17.79,32.523a4.668,4.668,0,0,0-3.57,1.375,1.016,1.016,0,0,1-1.114.246,5.075,5.075,0,0,0-6.327,2.109.835.835,0,0,1-.753.41,5.788,5.788,0,0,0-4.959,9.111,1.669,1.669,0,0,1,.172,1.639,4.013,4.013,0,0,0,1.151,4.771,3.269,3.269,0,0,1,1.426-.42,14.226,14.226,0,0,1,18.367-14.83A4.663,4.663,0,0,0,17.79,32.523Z" transform="translate(0 -30.637)"/></g><path class="c" d="M2.663,103a1.722,1.722,0,0,0-.172-1.667,5.938,5.938,0,0,1,2.944-9,5.79,5.79,0,0,0-4.368,9.106,1.669,1.669,0,0,1,.172,1.639,4.013,4.013,0,0,0,1.151,4.771,3.358,3.358,0,0,1,1.031-.373A4.123,4.123,0,0,1,2.663,103Z" transform="translate(0 -86.304)"/><path class="d" d="M77.932,90.61a14.5,14.5,0,0,0-4.939-4.089,14.206,14.206,0,0,0-6.451-1.528,14.37,14.37,0,0,0-14.3,15.615l.07,0a4.267,4.267,0,0,1,3.312,1.769l.019.027.033,0a4.674,4.674,0,0,1,3.83,2.751,9.064,9.064,0,0,1,.891,2.544l.009.056.057,0c2.8.18,4.869,3.007,6.043,5.571,1.038-3.646,3.4-6.715,7.129-7.336l.068-.011-.009-.069c-.008-.058-.749-5.8,2.525-7.868l.048-.03-.019-.054c-.017-.046-1.62-4.645,1.559-6.707l.028-.018,0-.033a4.208,4.208,0,0,1,.11-.53l.009-.034Z" transform="translate(-48.565 -79.471)"/><path class="e" d="M67.833,85.05q-.64-.056-1.292-.057a14.37,14.37,0,0,0-14.3,15.615l.07,0a3.064,3.064,0,0,1,1.44.261A14.934,14.934,0,0,1,67.833,85.05Z" transform="translate(-48.565 -79.471)"/><path class="a" d="M23.082,318.028a6.9,6.9,0,0,0-4.2-3.024.67.67,0,0,1-.538-.494c-.578-2.308-1.969-4.478-4.337-4.872a1.046,1.046,0,0,1-.611-.335c-1.394-1.568-3.264-2.081-5.078-.773-3.021,2.178-.424,4.913,2.364,4.352.814-.164,1.28.781,1.926,2.088a11.584,11.584,0,0,0,3.378,4.55,9.54,9.54,0,0,0,5.849,1.7,18.894,18.894,0,0,0,2.87-.238A14.089,14.089,0,0,0,23.082,318.028Z" transform="translate(-6.487 -286.8)"/><path class="b" d="M23.263,321.158a9.54,9.54,0,0,1-5.849-1.7,11.585,11.585,0,0,1-3.378-4.55c-.646-1.307-1.112-2.252-1.926-2.088-2.788.561-5.385-2.174-2.364-4.352A4,4,0,0,1,11,307.841a3.45,3.45,0,0,0-2.683.694c-3.021,2.178-.424,4.913,2.364,4.352.814-.164,1.28.781,1.926,2.088a11.584,11.584,0,0,0,3.378,4.55,9.54,9.54,0,0,0,5.849,1.7c.52,0,1.024-.027,1.525-.072Z" transform="translate(-6.486 -286.806)"/><path class="f" d="M130.3,146.161a.534.534,0,0,0-.722-.222,11.423,11.423,0,0,0-5.31,5.843,12.105,12.105,0,0,0-.446,1.3,21.229,21.229,0,0,0-1.872-3.844,10.522,10.522,0,0,1,3.255-5.6.534.534,0,0,0-.685-.819,11.23,11.23,0,0,0-3.361,5.227,18.98,18.98,0,0,0-4.571-4.64.534.534,0,0,0-.582.9,15.592,15.592,0,0,1,2.4,2.1,9.431,9.431,0,0,0-3.749.322.534.534,0,1,0,.342,1.012,8.473,8.473,0,0,1,4.563-.02,20.5,20.5,0,0,1,1.3,1.8,19.9,19.9,0,0,1,1.156,2.063c-3.608-1.681-8.4.181-8.634.273a.534.534,0,0,0,.394.993c.059-.023,5.874-2.285,8.99.488a20.726,20.726,0,0,1,1.107,4.405,10.034,10.034,0,0,0-5.483-1.218.534.534,0,0,0,.1,1.064,9.332,9.332,0,0,1,5.529,1.479,24.6,24.6,0,0,1-.431,6.665.534.534,0,1,0,1.048.207,24.6,24.6,0,0,0,.024-9.968c-.046-.213-.1-.425-.148-.637,0-.009,0-.018,0-.027a10.514,10.514,0,0,1,5.567-8.419A.534.534,0,0,0,130.3,146.161Z" transform="translate(-105.202 -133.173)"/><path class="a" d="M272.137,198.748a26.84,26.84,0,0,0-1.063-6.4h-.053c-2.416.053-2.711,4.238-2.722,4.417-.17,3.611-5.075,8.81-5.4,9.133-3.9.67-6.465,4.056-7.309,7.549a8.267,8.267,0,0,0,3.495.708c.134,0,.272,0,.412-.009,2.154-.09,5.481-.947,9.1-4.523C271.464,206.8,272.3,202.733,272.137,198.748Z" transform="translate(-237.856 -179.378)"/><g transform="translate(17.739 8.265)"><path class="b" d="M258.214,392.955a10,10,0,0,1,4.6-5.1c-3.852.707-6.381,4.066-7.218,7.531a8.267,8.267,0,0,0,3.495.708c.134,0,.272,0,.412-.009.169-.007.347-.02.53-.037l-.037,0A2.209,2.209,0,0,1,258.214,392.955Z" transform="translate(-255.595 -369.574)"/><path class="b" d="M369.632,126.426c-.09-1.012-.947-1.693-2.351-1.868-2.158-.27-3.533,1.045-3.984,3.057a.884.884,0,0,1-.322.509,4.8,4.8,0,0,0-1.76,4.045,9.076,9.076,0,0,0,.334,2.3.4.4,0,0,1-.15.434,6.586,6.586,0,0,0-2.289,4.621,12.436,12.436,0,0,0,.043,3.257h0c3.391-1.245,5.642-2.992,6.71-5.286a11.23,11.23,0,0,0,.762-5.45c-.059-1.414-.1-2.435.669-2.674A3.119,3.119,0,0,0,369.632,126.426Z" transform="translate(-351.844 -124.523)"/></g><path class="c" d="M360.587,139.525a6.587,6.587,0,0,1,2.289-4.621.4.4,0,0,0,.15-.434,9.08,9.08,0,0,1-.334-2.3,4.8,4.8,0,0,1,1.76-4.045.883.883,0,0,0,.322-.509,3.6,3.6,0,0,1,2.726-3.024c-.072-.012-.146-.024-.221-.033-2.158-.27-3.533,1.045-3.984,3.057a.883.883,0,0,1-.322.509,4.8,4.8,0,0,0-1.76,4.045,9.078,9.078,0,0,0,.334,2.3.4.4,0,0,1-.15.434,6.586,6.586,0,0,0-2.289,4.621,12.433,12.433,0,0,0,.043,3.257q.741-.272,1.408-.576A12.429,12.429,0,0,1,360.587,139.525Z" transform="translate(-334.103 -116.259)"/></g></svg>