<svg xmlns="http://www.w3.org/2000/svg" viewBox="0 0 152.83 121.52"><defs><style>.cls-1{fill:#00a650;}</style></defs><title>Cart</title><g id="Layer_2" data-name="Layer 2"><g id="Layer_1-2" data-name="Layer 1"><path id="buy" class="cls-1" d="M31,78.78,22.54,21.49H6.19a6.2,6.2,0,0,1,0-12.39H24.87c6.64,0,9,2.68,9.7,8l.73,5.25H87.15a34.57,34.57,0,0,0-.22,11.21h-50l3.9,27.16,61.32-.06a3.56,3.56,0,0,0,2.74-1.06,31.67,31.67,0,0,0,17.52,6.59,12,12,0,0,1-11.1,5.75H42.46l.85,5.74a4.12,4.12,0,0,0,4.08,4h63.27A5.61,5.61,0,0,1,111,92.9H45.81C36.94,92.9,32.25,87.6,31,78.78Zm9.26,32.47a10.3,10.3,0,1,1,10.33,10.27h0a10.29,10.29,0,0,1-10.32-10.25v0Zm51,0a10.3,10.3,0,1,1,10.33,10.27h0a10.29,10.29,0,0,1-10.32-10.25v0ZM94.69,29a29.07,29.07,0,1,1,29.07,29.13A29.06,29.06,0,0,1,94.69,29Zm33.42,15V33.2h10.1A4.2,4.2,0,0,0,142.34,29a4.16,4.16,0,0,0-4.13-4.13h-10.1V14.11a4.33,4.33,0,0,0-8.65,0V24.88H109.31A4.28,4.28,0,0,0,105.13,29a4.33,4.33,0,0,0,4.18,4.19h10.16V44a4.18,4.18,0,0,0,4.25,4.13h0A4.24,4.24,0,0,0,128.11,44Z"/></g></g></svg>