<svg xmlns="http://www.w3.org/2000/svg" width="23.9" height="24.198" viewBox="0 0 23.9 24.198"><defs><style>.a{fill:#00a652;}</style></defs><path class="a" d="M20.97,276.824V263.477c0-2.679,1.492-4.159,4.194-4.159H37.032l-3.137,3.137H25.529a1.249,1.249,0,0,0-1.41,1.434v12.536a1.249,1.249,0,0,0,1.41,1.433H38.265c.752,0,1.245-.446,1.245-1.433v-8.859l3.149-3.149v12.407c0,2.69-1.492,4.171-4.018,4.171H25.164C22.462,281,20.97,279.515,20.97,276.824Zm8.883-5.639,1.057-2.538,9.564-9.576,2.173,2.15L33.071,270.8l-2.6,1.034A.5.5,0,0,1,29.853,271.185Zm11.455-12.948,1-.975a1.31,1.31,0,0,1,1.821-.165l.364.376a1.336,1.336,0,0,1-.059,1.915l-.963,1.01Z" transform="translate(-20.97 -256.797)"/></svg>