<svg xmlns="http://www.w3.org/2000/svg" width="33.914" height="29.731" viewBox="0 0 33.914 29.731"><defs><style>.a{fill:#d0d0d0;}</style></defs><path class="a" d="M221.27,233.03a1.673,1.673,0,0,1,.632-1.362l14.051-12.816a3.249,3.249,0,0,1,2.274-.954,3.357,3.357,0,0,1,2.288.954l4.2,3.832V218.8a.95.95,0,0,1,1.011-1.01h2.723a.943.943,0,0,1,1.011,1.01v8.226l5.1,4.646a1.673,1.673,0,0,1,.632,1.362A1.589,1.589,0,0,1,253.5,234.6a1.941,1.941,0,0,1-1.348-.576l-1.8-1.643v11.721a3.185,3.185,0,0,1-3.509,3.411H229.622a3.189,3.189,0,0,1-3.523-3.411V232.4l-1.8,1.628a1.932,1.932,0,0,1-1.333.576A1.594,1.594,0,0,1,221.27,233.03Zm20.9,11.131h3.594a1.132,1.132,0,0,0,1.249-1.249V229.325l-8.436-7.735a.511.511,0,0,0-.351-.14.448.448,0,0,0-.337.154l-8.45,7.721v13.588a1.132,1.132,0,0,0,1.249,1.249h3.594v-8.675a.984.984,0,0,1,1.053-1.039h5.8a.972.972,0,0,1,1.038,1.039Z" transform="translate(-221.27 -217.786)"/></svg>