<svg xmlns="http://www.w3.org/2000/svg" xmlns:xlink="http://www.w3.org/1999/xlink" width="256" height="256" viewBox="0 0 256 256"><defs><style>.a{fill:#eee;}.b{fill:#fecd4d;}.c{fill:#eea886;}.d{fill:#face87;}.e{fill:#9ccc9b;}.f{fill:#ca595b;}.g{fill:#ec686b;}.h{fill:#9a6fa0;}.i{fill:#82c07e;}.j{fill:url(#a);}.k{fill:url(#b);}.l{fill:#292c47;}.m{fill:#2f4563;}.n{fill:#db9c7c;}.o{fill:#ffbf55;}.p{fill:#a77860;}.q{fill:#9c7534;}.r{fill:#23344a;}.s{fill:url(#c);}.t{fill:#3c6b4a;}.u{fill:#00a652;}.v{fill:#163342;}.w{fill:#2f6b8c;}.x{fill:#406933;}.y{fill:#c44a4a;}.z{fill:#cf4d4d;}.aa{fill:#d85151;}.ab{fill:#6b4528;}.ac{fill:#eea987;}.ad{fill:#665249;}.ae{fill:#2c3167;}.af{fill:none;}</style><linearGradient id="a" x1="47.642" y1="-0.039" x2="47.463" y2="0.756" gradientUnits="objectBoundingBox"><stop offset="0" stop-color="#face87"/><stop offset="1" stop-color="#fad7a0"/></linearGradient><linearGradient id="b" x1="-0.112" y1="0.65" x2="0.886" y2="0.65" gradientUnits="objectBoundingBox"><stop offset="0" stop-color="#d4a862"/><stop offset="1" stop-color="#fad7a0"/></linearGradient><linearGradient id="c" x1="-0.087" y1="0.624" x2="0.913" y2="0.624" gradientUnits="objectBoundingBox"><stop offset="0" stop-color="#4f8d62"/><stop offset="1" stop-color="#639c38"/></linearGradient></defs><g transform="translate(-2475.912 -1056.768)"><path class="a" d="M2675.544,1670.1c-4.044-18.183-13.818-30.3-41.242-23.9s-36.322,13.673-52.553,7.931-70.034-7.915-69.759,4.568,18.168,27.445,56.762,23.524S2680.7,1693.278,2675.544,1670.1Z" transform="translate(10.075 -382.134)"/><g transform="translate(2537.718 1084.085)"><g transform="translate(40.802 51.327)"><path class="b" d="M2690.936,1266.1c.066.083.162.2.284.349h0c.313.381.8.967,1.411,1.7,3.54,4.215,11.318,13.206,14.276,14.826,2.1,1.148,2.412-2.471.324-4.692-1.9-2.026-9.262-15.1-12.107-17.912-1.382-1.366-3.258-14.291-3.258-14.291s-1.7,10.783-1.505,12.023S2689.724,1264.6,2690.936,1266.1Z" transform="translate(-2690.26 -1246.078)"/></g><g transform="translate(54.094 83.672)"><path class="c" d="M2735.914,1347.768s1.222,1.6,1.855,1.8,1.365,1.312,1.895,1.6,2.268.56,2.688,1.045a16.57,16.57,0,0,0,1.126,2.194c.395.366,1.287,1.008.951,1.338s-1.3-.03-1.3-.03a.671.671,0,0,1,.133.733c-.4.735-.926.726-.926.726s.1.585-.141.851a1.471,1.471,0,0,1-1.048.563,1.353,1.353,0,0,1-.539.75,1.236,1.236,0,0,1-1.186.094s-.6.659-1.064.483a4.154,4.154,0,0,1-1.026-.781,15.4,15.4,0,0,1-3.015-5.706,11.351,11.351,0,0,0-2.085-4.345Z" transform="translate(-2732.234 -1347.768)"/></g><g transform="translate(46.023 90.453)"><path class="d" d="M2742.073,1392.89l-35.278.06-.035-.789c-.021-.48-.443-11.845,5.949-18.536a17.013,17.013,0,0,1,23.384-.04c6.416,6.67,6.031,18.036,6.012,18.516ZM2708.4,1391.3l32.064-.055c-.038-2.646-.558-11.327-5.561-16.525a15.375,15.375,0,0,0-21,.04C2708.909,1379.986,2708.425,1388.657,2708.4,1391.3Z" transform="translate(-2706.747 -1368.951)"/></g><path class="d" d="M2724.89,1375.771a14.872,14.872,0,0,1,12.656-5.208l0-1.65a16.371,16.371,0,0,0-13.347,5.116Z" transform="translate(-2672.648 -1278.475)"/><path class="e" d="M2713.879,1422.976c-6.954.011-7.191,6.593-7.191,6.593l13.287-.022S2720.833,1422.964,2713.879,1422.976Z" transform="translate(-2660.684 -1315.368)"/><path class="f" d="M2745.18,1433.286c-3.229-.3-3.6,3.3-3.6,3.3l6.954-.012A3.533,3.533,0,0,0,2745.18,1433.286Z" transform="translate(-2684.529 -1322.392)"/><path class="g" d="M2756.159,1433.269c-3.229-.306-3.6,3.3-3.6,3.3l6.954-.012A3.534,3.534,0,0,0,2756.159,1433.269Z" transform="translate(-2692.032 -1322.38)"/><path class="h" d="M2784.974,1413.813c2.35-5.84-7.089-6.817-7.7-2.968s-7.063,8.828-7.063,8.828l11.3,2.216S2782.625,1419.653,2784.974,1413.813Z" transform="translate(-2704.088 -1305.512)"/><path class="i" d="M2790.323,1408c-3.722-.164-5.647,3.833-5.647,3.833s5.521-2.515,5.9-1.305,1.188,4.714,1.188,4.714.922-5.419,1.181-4.57,3.037,2.268,3.037,2.268c.181-3.25-3.041-4.542-3.041-4.542S2794.044,1408.167,2790.323,1408Z" transform="translate(-2713.974 -1305.158)"/><path class="j" d="M2726.674,1457.354l-12.458.021c-15.247.026-12.845-21.727-12.845-21.727l38.075-.065S2741.923,1457.328,2726.674,1457.354Z" transform="translate(-2656.957 -1323.908)"/><path class="k" d="M2726.674,1457.444l-12.458.021c-15.247.026-12.845-21.727-12.845-21.727l13.785-.023S2714.005,1457.465,2726.674,1457.444Z" transform="translate(-2656.957 -1323.998)"/><g transform="translate(8.008 3.24)"><path class="l" d="M2596.118,1095.456s-4.236-1.109-6.3,2.637,6.165,15.4,2.722,20.159c-3.041,4.207-5.836,2.092-5.836,2.092s5.837,6.319,10.82-1.155c2.989-4.483,1.686-9.359,1.524-13.4S2596.118,1095.456,2596.118,1095.456Z" transform="translate(-2586.706 -1095.303)"/></g><g transform="translate(43.91 187.926)"><path class="m" d="M2706.734,1678s1.14,3.021,2.721,3.736,5.164,4.028,6.6,4.265,4.883.5,5.077,2.32-.173,3.47-7.115,2.525a51.163,51.163,0,0,1-13.5-4.141s-1.413-7.03.837-10.505S2706.734,1678,2706.734,1678Z" transform="translate(-2700.076 -1675.018)"/></g><g transform="translate(44.305 186.577)"><path class="c" d="M2707.586,1675.091l-1.306-4.334-4.958.008.008,4.623S2708.836,1678.192,2707.586,1675.091Z" transform="translate(-2701.322 -1670.756)"/></g><g transform="translate(0 180.359)"><path class="m" d="M2568.469,1653.579s.494,3.133,1.265,4.081,1.892,5.458,3.465,6.9,5.429,4.676,4.253,6.3-9.418-.445-12.371-5.457-3.961-5.58-3.588-6.943,3.156-6.609,3.088-7.246S2568.469,1653.579,2568.469,1653.579Z" transform="translate(-2561.418 -1651.122)"/></g><g transform="translate(3.157 176.824)"><path class="c" d="M2576.479,1643.695a8.254,8.254,0,0,0-1.2,2.256c-.208.832-2.029,1.164-3.493-.64a2.9,2.9,0,0,1-.395-1.729,15.7,15.7,0,0,1,1.289-3.624Z" transform="translate(-2571.386 -1639.959)"/></g><g transform="translate(57.92 88.836)"><path class="n" d="M2751.289,1366.5s-1.836-2.436-2.882-2.478-.433.873-.433.873-.59-.916-1.383-.521-.018,1.428-.018,1.428a.881.881,0,0,0-1.266.1c-.63.67.212,1.382.212,1.382s-1.357-.311-1.186.811a4.57,4.57,0,0,0,2.284,2.929s.552.309,1.113-.377a1.281,1.281,0,0,0,1.773-.863s1.6-.241,1.253-1.454A1.042,1.042,0,0,0,2751.289,1366.5Z" transform="translate(-2744.317 -1364.025)"/></g><g transform="translate(26.592 86.077)"><path class="l" d="M2647.444,1376.577c.26,1.25,1.927,6.48,3.792,12.292h0c1.7,5.3,3.567,11.078,4.687,14.767.417,1.376.732,2.461.894,3.122,1.075,4.367-.115,11.224-.492,16.952s5.845,33.9,5.845,33.9c1.458.677,7.916-1.133,7.916-1.133-1.072-2.037-2.567-37.118-1.989-39.352s.957-8.449.37-10.875a9.459,9.459,0,0,1-.194-1.948c-.054-3.064.568-8.13.944-13.686.473-6.992-2.275-24.367-2.665-25.92-.035-.143-.093-.344-.166-.59-.719-2.436-3.034-9.352-3.034-9.352-4.673-1.382-8.19-1.627-10.814-1.087a8.038,8.038,0,0,0-6.333,5.452C2643.932,1365.443,2647.106,1374.955,2647.444,1376.577Z" transform="translate(-2645.391 -1353.403)"/></g><g transform="translate(2.224 81.271)"><path class="l" d="M2568.44,1436.639l6.382,2.7c.8-3.884,18.558-30.892,19.725-33.9a43.947,43.947,0,0,0,2.4-10.975c0-.382.026-1.025.079-1.86.2-3.238.784-9.345,1.626-14.1.157-.887.323-1.727.5-2.492.934-4.1,1.073-18.1,1.07-26.34,0-3.665-.03-6.187-.03-6.187s-.082-.065-.235-.18c-1.773-1.336-13.144-9.486-17.09-1.844a22.89,22.89,0,0,0-2.132,6.444,74.218,74.218,0,0,0-.177,22.551c.887,6.075,3.8,13.92,4.289,20.29.272,3.5.181,6.34-.609,7.72-2.227,3.888-4.4,7.179-8.9,20.891C2573.877,1423.81,2568.44,1436.639,2568.44,1436.639Z" transform="translate(-2568.44 -1338.226)"/></g><g transform="translate(15.832 1.496)"><path class="c" d="M2623.056,1090s8.793.287,9.169,13.022-2.391,15.451-10.237,12.811-10.345-15.96-10.525-18.024S2610.967,1088.49,2623.056,1090Z" transform="translate(-2611.413 -1089.796)"/></g><g transform="translate(11.642 31.784)"><path class="b" d="M2598.182,1198.024c-.027,4.385,5.031,14.858,5.814,18.093s2.014,4.269.985,8.414-4.216,18.164-4.084,19.394,28.9,5.716,33.23,4.867c0,0-5.335-19.774-5.727-22.039s.454-10.76.644-13.156,2.607-7.553,2.52-9.954c-.087-2.445-1.292-4.556-2.977-7.165-.521-.809-1.07-1.633-1.618-2.434a46.169,46.169,0,0,0-4.442-5.793,13.959,13.959,0,0,0-1.787-1.421l0,0a8.271,8.271,0,0,0-1.837-.966l-7.705-1.217s-4.8,1.745-7.558,2.4C2603.634,1187.041,2598.245,1187.836,2598.182,1198.024Z" transform="translate(-2598.182 -1184.645)"/></g><g transform="translate(34.195 33.911)"><path class="o" d="M2669.4,1191.535l4.477,7.029,4.132,6.487c-.01-.035-.285-1.017-.756-3.865-.089-.54-.186-1.148-.288-1.829a4.744,4.744,0,0,0-.131-.6h0c-1.771-4.062-7.228-7.119-7.428-7.22Z" transform="translate(-2669.398 -1191.535)"/></g><g transform="translate(21.319 21.62)"><path class="c" d="M2628.775,1153.529c.78,1.465,1.615,10.569,1.615,10.569s10.968,4.125,9.842,1.783a8.972,8.972,0,0,1-.675-3.632,17.615,17.615,0,0,1,.118-2.212c.028-.24.05-.377.05-.377S2628,1152.062,2628.775,1153.529Z" transform="translate(-2628.738 -1153.341)"/></g><g transform="translate(26.005 27.389)"><path class="p" d="M2643.535,1171.557c1.687,2.479,6.133,3.14,6.133,3.14h0a17.611,17.611,0,0,1,.118-2.212C2646.932,1173.04,2643.535,1171.557,2643.535,1171.557Z" transform="translate(-2643.535 -1171.557)"/></g><g transform="translate(34.2 33.91)"><path class="o" d="M2676.825,1198.717h0a9.2,9.2,0,0,1,.437,2.476l-1.619-2.434s-2.89-4.129-3.88-5.2a16.376,16.376,0,0,0-2.349-2.012S2675.093,1194.26,2676.825,1198.717Z" transform="translate(-2669.415 -1191.544)"/></g><g transform="translate(20.538 31.684)"><path class="c" d="M2638.094,1185.8s5.178,7.933,3.431,8.63-11.214-.907-15.251-8.443C2626.274,1185.985,2632.286,1182.89,2638.094,1185.8Z" transform="translate(-2626.274 -1184.552)"/></g><g transform="translate(53.297 83.057)"><path class="o" d="M2735.4,1347.84s-2.636.878-3.444,2.382a24.683,24.683,0,0,0-2.233-2.588l3.99-1.736Z" transform="translate(-2729.719 -1345.898)"/></g><g transform="translate(42.494 60.764)"><path class="m" d="M2695.605,1276.093c.012-.108.019-.17.019-.181a.367.367,0,0,0-.009.05A1.3,1.3,0,0,0,2695.605,1276.093Z" transform="translate(-2695.605 -1275.912)"/></g><g transform="translate(41.725 60.97)"><path class="q" d="M2693.213,1287.23h0c.312.381,1.481,1.788,2.094,2.516,0,0-1.416-11.739-1.362-13.26C2693.811,1277.7,2693,1284.623,2693.213,1287.23Z" transform="translate(-2693.176 -1276.488)"/></g><g transform="translate(16.017 66.959)"><path class="c" d="M2613.767,1295.336a60.233,60.233,0,0,0,6.111,1.7c2.959.622-.093,4.172-.093,4.172s-5.125-.48-7.591-.7C2611.29,1300.426,2613.767,1295.336,2613.767,1295.336Z" transform="translate(-2611.996 -1295.336)"/></g><g transform="translate(11.53 33.965)"><path class="o" d="M2606.459,1204.59s-6.586-2.33-8.633-2.484c0,0,1.038-11.482,7.833-10.316S2606.459,1204.59,2606.459,1204.59Z" transform="translate(-2597.826 -1191.707)"/></g><g transform="translate(15.356 0.949)"><path class="l" d="M2624.411,1096.859s-1.681,6.247-11.764,8.132c0,0-7.925-13.515,3.191-16.357s14.7,5.71,15.042,9.916A12.194,12.194,0,0,0,2624.411,1096.859Z" transform="translate(-2609.908 -1088.067)"/></g><g transform="translate(14.88)"><path class="l" d="M2629.451,1094.855s-4.469-16.018-18.158-7.066c0,0-6.873,4.576.585,15.787C2611.879,1103.577,2622.245,1100.837,2629.451,1094.855Z" transform="translate(-2608.405 -1085.07)"/></g><g transform="translate(24.46 68.855)"><path class="r" d="M2639.386,1301.316a5.147,5.147,0,0,0-.607,4.029s.248.339,1.133.118c0,0-.05-2.887.815-3.951A2.093,2.093,0,0,0,2639.386,1301.316Z" transform="translate(-2638.657 -1301.299)"/></g><g transform="translate(21.076 14.727)"><path class="c" d="M2631.685,1133.457c-.6-1.308-1.572-2.457-3.015-1.569s-.486,4.072,1.354,4.561S2632.212,1134.611,2631.685,1133.457Z" transform="translate(-2627.97 -1131.575)"/></g><g transform="translate(17.935 17.069)"><path class="l" d="M2621.377,1139.492a6.4,6.4,0,0,0-1.2,4.284s-2.282-2.373-2.119-4S2621.377,1139.492,2621.377,1139.492Z" transform="translate(-2618.053 -1138.969)"/></g><g transform="translate(13.283 49.059)"><path class="s" d="M2635.174,1252.017a10.646,10.646,0,0,1-.114,1.581,11.063,11.063,0,0,1-1.107,3.447,12.264,12.264,0,0,1-1.137,1.817h0c-2.794,3.712-7.8,6.191-13.522,6.2-5.8.01-10.876-2.521-13.66-6.311a11.817,11.817,0,0,1-1.56-2.856,10.881,10.881,0,0,1-.676-3.02c-.021-.266-.031-.535-.031-.805a10.891,10.891,0,0,1,.078-1.308,10.611,10.611,0,0,1,.383-1.826,11.357,11.357,0,0,1,1.079-2.475c2.551-4.389,8.012-7.424,14.344-7.435,6.191-.01,11.559,2.876,14.193,7.1a11.663,11.663,0,0,1,.9,1.74,10.973,10.973,0,0,1,.776,3.08A10.33,10.33,0,0,1,2635.174,1252.017Z" transform="translate(-2603.364 -1239.027)"/><path class="t" d="M2635.335,1259.085a10.132,10.132,0,0,1-2.921-.181,21.564,21.564,0,0,0-6.042-.66c-2.907-.013-4.437-.433-6.118.011a21.422,21.422,0,0,1-4.969.9c-2.37.169-3.9-.693-6.424.011-1.79.5-3.313.841-4.042,1a11.364,11.364,0,0,1,1.079-2.475c1.533-.693,4.091-1.7,5.331-1.342,1.835.531,3.287-.327,5.734-.59s5.581-.514,6.958-.011,5.047-.117,7.037.72a19.4,19.4,0,0,0,3.477.886A11.729,11.729,0,0,1,2635.335,1259.085Z" transform="translate(-2604.358 -1250.249)"/><path class="t" d="M2635.174,1276.561a10.641,10.641,0,0,1-.114,1.581c-1.105-.035-2.232-.056-3.094-.027-2.37.079-4.051.541-5.2.543s-4.208-.605-5.432-.679-4.663.084-6.04.086l-5.047.008c-1.989,0-4.358.161-4.358.161s-1.352-.431-2.5-.814c-.021-.266-.031-.535-.031-.806a10.888,10.888,0,0,1,.078-1.308c1.241,0,3.338.079,5.347.016,2.6-.08,4.054.071,6.653-.011s5.428-.773,7.8-.013,3.75,1.335,5.127,1.273c1.007-.045,4.377-.955,6.747-1.085A10.339,10.339,0,0,1,2635.174,1276.561Z" transform="translate(-2603.364 -1263.572)"/><path class="t" d="M2635.477,1293.444a12.383,12.383,0,0,1-1.137,1.817h0a32.227,32.227,0,0,0-6.647,1.752,22.789,22.789,0,0,1-5.6,1.005c-.518,0-6.559-.218-6.559-.218a20.115,20.115,0,0,0-3.367-1.141,30.327,30.327,0,0,1-5.01-1.508,11.827,11.827,0,0,1-1.561-2.856c2.723.975,8.749,2.584,9.779,2.523,1.3-.08,4.589.3,7.42.292a23.084,23.084,0,0,0,6.114-.7c1.454-.385.844-1.33,3.669-1.077C2633.578,1293.425,2634.589,1293.45,2635.477,1293.444Z" transform="translate(-2604.889 -1275.426)"/></g><g transform="translate(6.836 34.082)"><path class="b" d="M2588.551,1198.99s1.2-8.209,7.219-6.867c5.781,1.291.384,12.059-.038,13.333s-4.685,11.688-5.053,13.052c-1.166,4.314-.066,4.414,1.7,5.427,5.217,2.993,15.689,3.5,16.926,4.327s1.412,2.664-.664,2.757c-2.7.12-18.14-1.306-20.294-1.513-2.088-.2-6.246-.369-5.167-7.793C2583.906,1216.715,2588.551,1198.99,2588.551,1198.99Z" transform="translate(-2583.004 -1191.975)"/></g><g transform="translate(23.806 65.642)"><path class="c" d="M2636.686,1294.2s3.219.534,3.519.484,1.568-2.135,3.042-2.511a30.352,30.352,0,0,0,3.768-.951c.454-.284.581,1.16-.834,1.753s-1.768,1.385.883,1.912c1.468.292,6.948-.329,6.494.6-.267.544-5.548.941-5.548.941s5.7-.035,5.894.308c.384.679-5.334.928-5.572.906,0,0,4.9.274,4.943.713.054.547-4.908.323-4.863.412,0,0,3.9.262,3.857.594-.051.436-3.478.495-4.142.418s-7.379-.83-8.505-1.052-3.029-.351-3.029-.351Z" transform="translate(-2636.593 -1291.183)"/></g></g><g transform="translate(2617.277 1081.163)"><path class="b" d="M2877.79,1194.186c-1.853-6.345,3.859-13.618,3.859-13.618a20.725,20.725,0,0,0-10.022-4.872c-1.948-.329-7.423-1.491-7.423-1.491l-4.4.007-4.4.008s-5.655,1.106-7.542,1.435a22.029,22.029,0,0,0-9.364,4.739s5.1,8.555,3.272,14.906c0,0,1.5,10.3,2.4,14.173.464,1.99.027,8.254,0,9.892-.047,2.345-.393,9.026-.859,14.766,0,0,5.287,3.136,16.607,3.385,11.2-.746,16.879-3.442,16.879-3.442-.721-6.834-1.188-12.587-1.474-14.812a84.253,84.253,0,0,1,.241-9.842C2875.811,1206.6,2877.79,1194.186,2877.79,1194.186Z" transform="translate(-2831.087 -1142.815)"/><path class="c" d="M2894.135,1159.977c-6.45.435-6.738-6.638-6.738-6.638s.456-.251.666-1.421a8.859,8.859,0,0,0,.067-2.288,21.489,21.489,0,0,0-.4-2.73c-1.16-5.62,9.935-3.088,9.935-3.088s.2,6.772,1.506,9.449C2899.168,1153.26,2900.586,1159.535,2894.135,1159.977Z" transform="translate(-2864.506 -1121.899)"/><path class="u" d="M2865.742,1306.343l17.913-3.355s-1.144-12.579-1.3-14.392c-.135-1.559-1.7-16.639-1.386-24.733,0,0-3.96-4.8-4.441-9.868l-11.019-.115h-.106l-11.038.271c-.463,5.072-4.733,9.764-4.733,9.764.12,8.565-.827,23.178-.957,24.737-.152,1.813-2.185,13.925-2.185,13.925l18.856,3.765v.091l.2-.046.2.045Z" transform="translate(-2836.553 -1197.094)"/><g transform="translate(0.509 194.134)"><path class="v" d="M2823.47,1685.4a18.875,18.875,0,0,1-2.1,3.844c-.96,1.092-4.64,3.046-4.654,6.284-.016,3.51,6.213,2.526,8.649,2.393s2.618-2.008,3.64-4,2.058-1.654,2.247-3.258a20.375,20.375,0,0,0-.794-5.19Z" transform="translate(-2816.719 -1685.395)"/></g><g transform="translate(7.151 192.641)"><path class="w" d="M2837.694,1681.157l.192,1.805a11.21,11.21,0,0,0,6.908-.012l-.027-2.272Z" transform="translate(-2837.694 -1680.678)"/></g><g transform="translate(36.213 194.072)"><path class="v" d="M2937.258,1685.2a18.856,18.856,0,0,0,2.11,3.838c.964,1.088,4.65,3.031,4.676,6.267.028,3.511-6.2,2.547-8.641,2.423s-2.625-2-3.653-3.986-2.063-1.648-2.258-3.25a20.406,20.406,0,0,1,.777-5.193Z" transform="translate(-2929.464 -1685.197)"/></g><g transform="translate(37.017 192.602)"><path class="w" d="M2939.1,1681.011l-.186,1.806a11.206,11.206,0,0,1-6.909.011l.02-2.271Z" transform="translate(-2932.002 -1680.557)"/></g><g transform="translate(5.925 83.468)"><path class="u" d="M2877.1,1400.505c.008,4.328-3.89,45.53-3.89,45.53-.43,1.443-7.917,1.368-9.361.648s1.137-43.7.864-48.068-8.017-34.863-9.281-34.717-7.759,37.811-8.763,41.131-3.708,41.488-3.708,41.488c-3.171,1.881-9.136.087-9.136.087s.4-42.708.826-43.863.321-4.473.447-15.293c.094-8.087,3.043-31.642,4.528-43.03.053-.405.1-.795.153-1.167.291-2.216.509-3.845.614-4.627.046-.338.071-.517.071-.517q.607-.281,1.27-.52c10.56-3.814,30.947.17,30.947.17l.035.288.126,1.052c.118,1,.3,2.5.5,4.233,0,.012,0,.025,0,.037.006.052.013.106.019.159.721,6.173,1.742,15.212,1.649,16.153C2874.867,1361.125,2877.091,1396.177,2877.1,1400.505Z" transform="translate(-2833.821 -1335.936)"/></g><path class="x" d="M2890.138,1289.112l-5.149.009-5.148.009-4.792,4.808.025,14.614,9.949-.017,9.948-.016-.025-14.614Z" transform="translate(-2856.068 -1221.175)"/><path class="b" d="M2952.4,1202.693s2.285,13.477,1.946,15.786-5.222,26.855-5.222,26.855l5.544,2.591s7.425-25.448,7.545-29.3-.766-17.072-2.162-22.874-3.107-9.767-6.1-12.608-8.222-3.679-8.222-3.679Z" transform="translate(-2904.366 -1146.387)"/><path class="b" d="M2824.885,1202.849s-2.24,13.485-1.892,15.792,5.01,25.033,5.01,25.033l-5.232,4.414s-7.512-25.423-7.645-29.273.708-17.074,2.084-22.881,3.073-9.778,6.059-12.628,8.21-3.707,8.21-3.707Z" transform="translate(-2815.112 -1146.478)"/><path class="u" d="M2935.821,1203.783s.5-13.344,5.72-22.4a4.684,4.684,0,0,0-2.969-.982s-5,12.1-5.29,23.359S2935.821,1203.783,2935.821,1203.783Z" transform="translate(-2895.846 -1147.082)"/><path class="u" d="M2859.493,1203.817s-.52-14.768-5.5-22.615a3.054,3.054,0,0,1,2.555-.927s5.124,12.219,5.452,23.481S2859.493,1203.817,2859.493,1203.817Z" transform="translate(-2841.682 -1146.959)"/><path class="c" d="M2945.547,1397.748a7.265,7.265,0,0,1-5.99,2.606c-4.446-.232-5.75-2.194-5.452-3.061S2944.913,1395.655,2945.547,1397.748Z" transform="translate(-2896.395 -1294.337)"/><path class="c" d="M2966.05,1399.605s3.318-1.107,2.75-1.98-2.5.454-2.5.454Z" transform="translate(-2918.251 -1294.968)"/><path class="c" d="M2843.15,1397.923a7.263,7.263,0,0,0,6,2.586c4.445-.247,5.742-2.212,5.441-3.079S2843.776,1395.828,2843.15,1397.923Z" transform="translate(-2834.271 -1294.444)"/><path class="c" d="M2841.421,1399.674s-3.288-1.177-2.724-2.052,2.463.526,2.463.526Z" transform="translate(-2831.184 -1294.973)"/><path class="y" d="M2953.911,1314.512a6.345,6.345,0,1,1-6.356-6.334A6.346,6.346,0,0,1,2953.911,1314.512Z" transform="translate(-2901.285 -1234.183)"/><path class="z" d="M2927.778,1307.527a6.345,6.345,0,1,1-6.356-6.334A6.346,6.346,0,0,1,2927.778,1307.527Z" transform="translate(-2883.427 -1229.422)"/><path class="y" d="M2914.329,1297.913a6.345,6.345,0,1,1-6.356-6.334A6.345,6.345,0,0,1,2914.329,1297.913Z" transform="translate(-2874.238 -1222.87)"/><path class="aa" d="M2887.308,1294.591a6.345,6.345,0,1,1-6.356-6.334A6.345,6.345,0,0,1,2887.308,1294.591Z" transform="translate(-2855.774 -1220.606)"/><path class="aa" d="M2914.361,1316.681a6.345,6.345,0,1,1-6.355-6.334A6.344,6.344,0,0,1,2914.361,1316.681Z" transform="translate(-2874.26 -1235.661)"/><path class="y" d="M2891.962,1307.589a6.345,6.345,0,1,1-6.356-6.335A6.345,6.345,0,0,1,2891.962,1307.589Z" transform="translate(-2858.954 -1229.464)"/><path class="y" d="M2872.144,1319.762a6.345,6.345,0,1,1-6.355-6.334A6.345,6.345,0,0,1,2872.144,1319.762Z" transform="translate(-2845.412 -1237.76)"/><path class="aa" d="M2867.74,1312.161a6.345,6.345,0,1,1-6.356-6.334A6.345,6.345,0,0,1,2867.74,1312.161Z" transform="translate(-2842.403 -1232.58)"/><path class="y" d="M2846.893,1313.172a6.345,6.345,0,1,1-6.356-6.334A6.345,6.345,0,0,1,2846.893,1313.172Z" transform="translate(-2828.157 -1233.27)"/><rect class="ab" width="51.032" height="22.939" transform="translate(3.327 79.991) rotate(-0.098)"/><g transform="translate(18.08 2.892)"><path class="ac" d="M2888.3,1102.02l0,.007a26.134,26.134,0,0,1-2.962,4.91c-3.858,4.966-14.274,4.886-13.028-8.512a35.681,35.681,0,0,1,.8-6.367c1.835-6.047,6.169-7.059,6.169-7.059,3.2-.182,8.811.6,10.685,4.769C2891.3,1092.729,2890.347,1097.642,2888.3,1102.02Z" transform="translate(-2872.205 -1084.975)"/></g><g transform="translate(18.987 2.892)"><path class="ad" d="M2890.257,1102.02l0,.007s-.461.124-2.131-3.234c-.335-.674-.591-.192-.736-.489l-2.654-1.03s2.616-4.391-.818-5.6c-3.5-1.234-8.846.386-8.846.386,1.835-6.047,6.168-7.059,6.168-7.059,3.2-.182,8.811.6,10.686,4.769C2893.255,1092.729,2892.3,1097.642,2890.257,1102.02Z" transform="translate(-2875.068 -1084.975)"/></g><g transform="translate(30.531 13.228)"><path class="ac" d="M2911.753,1118.57c.2-.911,1.993-1.7,2.76.257s-1.786,4.034-2.46,3.605S2911.429,1120.078,2911.753,1118.57Z" transform="translate(-2911.523 -1117.615)"/></g><g transform="translate(17.953)"><path class="ae" d="M2890.27,1090.165s-8.531-5.882-18.468-3.761c0,0,.569-12.427,11.889-10.319C2894.327,1078.066,2890.633,1088.761,2890.27,1090.165Z" transform="translate(-2871.802 -1075.844)"/></g><g transform="translate(10.061 9.007)"><path class="ae" d="M2867.76,1106.933s-14.065,1.538-19.48.415,6.646-2.8,6.646-2.8S2859.435,1103.121,2867.76,1106.933Z" transform="translate(-2846.882 -1104.285)"/></g><path class="p" d="M2897.643,1152.228s-2.3,6.179-8.144,5.829a8.85,8.85,0,0,0,.067-2.288l.007-.006A8.338,8.338,0,0,0,2897.643,1152.228Z" transform="translate(-2865.943 -1128.039)"/></g><rect class="af" width="256" height="256" transform="translate(2475.912 1056.768)"/></g></svg>