<svg xmlns="http://www.w3.org/2000/svg" width="32.162" height="29.597" viewBox="0 0 32.162 29.597"><defs><style>.a{fill:#00a652;}</style></defs><path class="a" d="M112.066,200.346V185.017a3.232,3.232,0,0,1-2.343-3.42v-2.3a3.273,3.273,0,0,1,3.436-3.548h25.3a3.223,3.223,0,0,1,3.422,3.548v2.3a3.226,3.226,0,0,1-2.329,3.42v15.329c0,3.263-1.789,5-5.067,5H117.117C113.855,205.35,112.066,203.609,112.066,200.346Zm25.812-18.1c.712,0,1.013-.332,1.013-1.061v-1.472c0-.728-.3-1.061-1.013-1.061H113.761c-.728,0-1.046.332-1.046,1.061v1.472c0,.728.318,1.061,1.046,1.061Zm-3.532,20.08a1.843,1.843,0,0,0,2.043-2.058V185.144H115.217v15.124a1.848,1.848,0,0,0,2.059,2.058ZM119.414,190.29v-.506a1.239,1.239,0,0,1,1.3-1.3h10.2a1.239,1.239,0,0,1,1.3,1.3v.506a1.265,1.265,0,0,1-1.3,1.331h-10.2A1.265,1.265,0,0,1,119.414,190.29Z" transform="translate(-109.723 -175.753)"/></svg>