<svg xmlns="http://www.w3.org/2000/svg" width="32.628" height="31.41" viewBox="0 0 32.628 31.41"><defs><style>.a{fill:#d0d0d0;}</style></defs><path class="a" d="M204.768,155.728V152.3h-.513c-4.137,0-6.851-2.626-6.851-7.027V133.722c0-4.4,2.6-7.042,7.042-7.042h18.544c4.445,0,7.042,2.655,7.042,7.042v11.546c0,4.387-2.6,7.027-7.042,7.027h-8.377l-5,4.4c-1.115.983-1.819,1.394-2.729,1.394A2.078,2.078,0,0,1,204.768,155.728Zm7.541-5.927a2.425,2.425,0,0,1,2.083-.851h8.436c2.582,0,3.844-1.32,3.844-3.858V133.883c0-2.538-1.262-3.844-3.844-3.844H204.606c-2.6,0-3.844,1.306-3.844,3.844v11.209c0,2.538,1.247,3.858,3.844,3.858h1.8c.866,0,1.276.337,1.276,1.276v4.122Zm-7.042-14.7a.939.939,0,0,1,.939-.953h15.008a.955.955,0,0,1,.968.953.98.98,0,0,1-.968.983H206.206A.975.975,0,0,1,205.267,135.1Zm0,4.577a.952.952,0,0,1,.939-.968h15.008a.968.968,0,1,1,0,1.937H206.206A.961.961,0,0,1,205.267,139.678Zm0,4.577a.952.952,0,0,1,.939-.968h9.932a.968.968,0,0,1,0,1.937h-9.932A.961.961,0,0,1,205.267,144.256Z" transform="translate(-197.403 -126.68)"/></svg>