<svg xmlns="http://www.w3.org/2000/svg" width="30.388" height="30.388" viewBox="0 0 30.388 30.388"><defs><style>.a{fill:#00a652;}</style></defs><path class="a" d="M362.358,232.355V212.846c0-3.535,1.912-5.432,5.48-5.432H387.25c3.584,0,5.5,1.9,5.5,5.432v19.509c0,3.535-1.912,5.448-5.5,5.448H367.838C364.27,237.8,362.358,235.906,362.358,232.355Zm24.571,1.768a1.921,1.921,0,0,0,2.137-2.169V213.248a1.909,1.909,0,0,0-2.137-2.153H368.175a1.9,1.9,0,0,0-2.137,2.153v18.705a1.908,1.908,0,0,0,2.137,2.169Zm-17.42-11.506a1.621,1.621,0,0,1,1.752-1.655h12.583a1.649,1.649,0,1,1,0,3.294H371.261A1.617,1.617,0,0,1,369.509,222.616Z" transform="translate(-362.358 -207.414)"/></svg>