<svg xmlns="http://www.w3.org/2000/svg" width="29.359" height="26.362" viewBox="0 0 29.359 26.362"><defs><style>.a{fill:#00a652;}</style></defs><path class="a" d="M198.612,313.271H178.936c-3.14,0-4.849,1.694-4.849,4.8v16.737c0,3.111,1.708,4.82,4.849,4.82h19.677c3.14,0,4.834-1.709,4.834-4.82V318.076C203.446,314.98,201.752,313.271,198.612,313.271Zm-.38,22.871H179.3a1.534,1.534,0,0,1-1.723-1.753V318.5a1.53,1.53,0,0,1,1.723-1.738h18.931a1.54,1.54,0,0,1,1.738,1.738v3.848h-8.328a1.012,1.012,0,0,0-1.081,1.08v6.032a1.023,1.023,0,0,0,1.081,1.1h8.328v3.834A1.544,1.544,0,0,1,198.232,336.142Z" transform="translate(-174.087 -313.271)"/></svg>