<svg xmlns="http://www.w3.org/2000/svg" width="18.725" height="19.968" viewBox="0 0 18.725 19.968"><path class="a" d="M310.483,254.83c0-2.391,3.565-3.985,6.8-4.186v1.786c-2.154.14-4.633,1.025-4.633,2.26,0,1.515,3.013,2.531,7.19,2.531s7.181-1.025,7.181-2.531c0-1.235-2.47-2.119-4.633-2.26v-1.786c3.249.2,6.814,1.8,6.814,4.186,0,2.338-3.565,4.248-9.362,4.248S310.483,257.169,310.483,254.83Zm8.364-3.083V246.23a3.617,3.617,0,1,1,2.014,0v5.517c0,2.181-.6,3.687-1.007,3.687S318.847,253.92,318.847,251.748Z" transform="translate(-310.483 -239.11)"/></svg>